<svg width="140" height="40" viewBox="0 0 140 40" fill="none" xmlns="http://www.w3.org/2000/svg">
<mask id="path-1-inside-1_4971_35280" fill="white">
<path fill-rule="evenodd" clip-rule="evenodd" d="M122 0H0V40H140V18L122 0Z"/>
</mask>
<path d="M0 0V-1H-1V0H0ZM122 0L122.707 -0.707107L122.414 -1H122V0ZM0 40H-1V41H0V40ZM140 40V41H141V40H140ZM140 18H141V17.5858L140.707 17.2929L140 18ZM0 1H122V-1H0V1ZM1 40V0H-1V40H1ZM140 39H0V41H140V39ZM139 18V40H141V18H139ZM140.707 17.2929L122.707 -0.707107L121.293 0.707107L139.293 18.7071L140.707 17.2929Z" fill="#047F56" mask="url(#path-1-inside-1_4971_35280)"/>
</svg>
