<svg width="16" height="16" viewBox="0 0 16 16" fill="none" xmlns="http://www.w3.org/2000/svg">
<path d="M12.7847 1.98207C11.5066 0.703908 9.80719 0 7.99962 0C6.19206 0 4.49262 0.703908 3.21449 1.98207C1.93633 3.26026 1.23242 4.95963 1.23242 6.76717C1.23242 10.4238 4.68987 13.4652 6.54734 15.0992C6.80546 15.3262 7.02837 15.5223 7.20597 15.6882C7.42847 15.896 7.71406 16 7.99959 16C8.28519 16 8.57072 15.896 8.79325 15.6882C8.97084 15.5223 9.19375 15.3262 9.45188 15.0992C11.3093 13.4652 14.7668 10.4238 14.7668 6.76717C14.7668 4.95963 14.0629 3.26026 12.7847 1.98207ZM8.83281 14.3955C8.56903 14.6275 8.34125 14.8279 8.15344 15.0033C8.06715 15.0838 7.93203 15.0839 7.84572 15.0033C7.65793 14.8278 7.43012 14.6275 7.16634 14.3954C5.42009 12.8593 2.16961 9.99999 2.16961 6.7672C2.16961 3.55257 4.7849 0.937283 7.99956 0.937283C11.2142 0.937283 13.8295 3.55257 13.8295 6.7672C13.8295 9.99999 10.5791 12.8593 8.83281 14.3955Z" fill="#C3E0D6"/>
<path d="M7.9998 3.52979C6.35539 3.52979 5.01758 4.86757 5.01758 6.51198C5.01758 8.15639 6.35539 9.49417 7.9998 9.49417C9.64421 9.49417 10.982 8.15639 10.982 6.51198C10.982 4.86757 9.64421 3.52979 7.9998 3.52979ZM7.9998 8.55689C6.87221 8.55689 5.95483 7.63951 5.95483 6.51195C5.95483 5.38438 6.87221 4.46701 7.9998 4.46701C9.1274 4.46701 10.0447 5.38438 10.0447 6.51195C10.0447 7.63951 9.1274 8.55689 7.9998 8.55689Z" fill="#C3E0D6"/>
</svg>
