<svg width="16" height="16" viewBox="0 0 16 16" fill="none" xmlns="http://www.w3.org/2000/svg">
<path opacity="0.7" d="M13.2001 6.02613L13.5126 5.63582V5.63582L13.2001 6.02613ZM9.46745 3.03755L9.15494 3.42786V3.42786L9.46745 3.03755ZM6.84701 3.00109L7.14859 3.39991V3.39991L6.84701 3.00109ZM2.84635 6.02628L2.54478 5.62747L2.84635 6.02628ZM2.26888 6.5269L1.86974 6.22576H1.86974L2.26888 6.5269ZM2.05083 6.96528L1.56989 6.82855L2.05083 6.96528ZM8.51432 2.40734L8.65172 1.92659L8.51432 2.40734ZM7.81702 2.39758L7.69299 1.9132V1.9132L7.81702 2.39758ZM14 7.68415L13.5 7.68414V7.68415H14ZM13.9525 6.95324L14.4345 6.8205L14.4345 6.8205L13.9525 6.95324ZM13.746 6.52496L13.3411 6.8183L13.746 6.52496ZM13.2716 13.8546L13.4986 14.3001L13.4986 14.3001L13.2716 13.8546ZM13.8548 13.2719L13.4093 13.0449V13.0449L13.8548 13.2719ZM2.72786 13.8546L2.50087 14.3001L2.50087 14.3001L2.72786 13.8546ZM2.14532 13.2721L1.69982 13.4991H1.69982L2.14532 13.2721ZM3.29568 6.59659C3.073 6.43329 2.7601 6.48143 2.5968 6.70411C2.4335 6.92679 2.48164 7.23969 2.70432 7.40299L3.29568 6.59659ZM6.73842 9.7413L7.0576 9.35643C7.04995 9.35009 7.04212 9.34398 7.03411 9.3381L6.73842 9.7413ZM9.26172 9.7413L9.5574 10.1445L9.26172 9.7413ZM13.2958 7.40299C13.5185 7.23969 13.5666 6.92679 13.4033 6.70411C13.24 6.48143 12.9271 6.43329 12.7045 6.59659L13.2958 7.40299ZM6.73978 9.74243L6.4206 10.1273L6.43208 10.1368L6.4441 10.1456L6.73978 9.74243ZM7.66584 10.3039L7.54064 10.788H7.54064L7.66584 10.3039ZM8.33398 10.3039L8.45919 10.788H8.45919L8.33398 10.3039ZM13.5126 5.63582L9.77995 2.64724L9.15494 3.42786L12.8876 6.41644L13.5126 5.63582ZM6.54544 2.60228L2.54478 5.62747L3.14793 6.4251L7.14859 3.39991L6.54544 2.60228ZM1.5 7.72798V11.8666H2.5V7.72798H1.5ZM2.54478 5.62747C2.25696 5.84511 2.03346 6.00876 1.86974 6.22576L2.66802 6.82804C2.72819 6.7483 2.81478 6.67702 3.14793 6.4251L2.54478 5.62747ZM2.5 7.72798C2.5 7.30988 2.50448 7.19801 2.53177 7.10202L1.56989 6.82855C1.49552 7.09011 1.5 7.36755 1.5 7.72798H2.5ZM1.86974 6.22576C1.73334 6.40655 1.63176 6.61093 1.56989 6.82855L2.53177 7.10202C2.55994 7.00295 2.60613 6.91008 2.66802 6.82804L1.86974 6.22576ZM9.77995 2.64724C9.3524 2.30492 9.02963 2.03459 8.65172 1.92659L8.37693 2.88809C8.51446 2.9274 8.65556 3.02802 9.15494 3.42786L9.77995 2.64724ZM7.14859 3.39991C7.65894 3.01399 7.8025 2.91742 7.94104 2.88195L7.69299 1.9132C7.3122 2.0107 6.98222 2.27199 6.54544 2.60228L7.14859 3.39991ZM8.65172 1.92659C8.33919 1.83727 8.00818 1.8325 7.69299 1.9132L7.94104 2.88195C8.08408 2.84532 8.23465 2.84743 8.37693 2.8881L8.65172 1.92659ZM14.5 7.68415C14.5 7.34035 14.5042 7.07351 14.4345 6.8205L13.4704 7.08598C13.4958 7.17819 13.5 7.28509 13.5 7.68414L14.5 7.68415ZM12.8876 6.41644C13.2024 6.66848 13.2842 6.73974 13.3411 6.8183L14.1509 6.23161C13.9964 6.01828 13.7854 5.85422 13.5126 5.63582L12.8876 6.41644ZM14.4345 6.8205C14.3759 6.60755 14.2789 6.40828 14.1509 6.23161L13.3411 6.8183C13.4005 6.90022 13.4443 6.99108 13.4704 7.08598L14.4345 6.8205ZM11.8687 14.4998C12.2331 14.4998 12.5365 14.5002 12.7835 14.48C13.0365 14.4593 13.2739 14.4146 13.4986 14.3001L13.0446 13.4091C12.9843 13.4398 12.893 13.4677 12.702 13.4833C12.5052 13.4994 12.2496 13.4998 11.8687 13.4998V14.4998ZM13.5 11.8688C13.5 12.2497 13.4996 12.5054 13.4835 12.7023C13.4679 12.8933 13.44 12.9847 13.4093 13.0449L14.3003 13.4989C14.4148 13.2742 14.4595 13.0367 14.4802 12.7837C14.5004 12.5367 14.5 12.2332 14.5 11.8688H13.5ZM13.4986 14.3001C13.8431 14.1246 14.1243 13.8443 14.3003 13.4989L13.4093 13.0449C13.3296 13.2013 13.2018 13.329 13.0446 13.4091L13.4986 14.3001ZM4.13127 13.4998C3.75039 13.4998 3.49465 13.4994 3.29766 13.4833C3.10649 13.4677 3.01508 13.4398 2.95486 13.4091L2.50087 14.3001C2.72558 14.4146 2.96325 14.4593 3.21622 14.48C3.46338 14.5002 3.76688 14.4998 4.13127 14.4998V13.4998ZM1.5 11.8666C1.5 12.2317 1.49961 12.5356 1.51983 12.7831C1.54051 13.0364 1.58525 13.2742 1.69982 13.4991L2.59083 13.0451C2.56008 12.9847 2.53215 12.8932 2.51651 12.7017C2.50039 12.5044 2.5 12.2482 2.5 11.8666H1.5ZM2.95486 13.4091C2.79806 13.3292 2.67072 13.2019 2.59083 13.0451L1.69982 13.4991C1.87559 13.844 2.1559 14.1243 2.50087 14.3001L2.95486 13.4091ZM2.70432 7.40299L6.44274 10.1445L7.03411 9.3381L3.29568 6.59659L2.70432 7.40299ZM9.5574 10.1445L13.2958 7.40299L12.7045 6.59659L8.96604 9.3381L9.5574 10.1445ZM6.41925 10.1262L6.4206 10.1273L7.05896 9.35756L7.0576 9.35643L6.41925 10.1262ZM6.4441 10.1456C6.86122 10.4515 7.17732 10.694 7.54064 10.788L7.79104 9.81986C7.65886 9.78567 7.52258 9.69644 7.03546 9.33922L6.4441 10.1456ZM8.96604 9.3381C8.47806 9.69595 8.34116 9.78562 8.20878 9.81986L8.45919 10.788C8.82274 10.694 9.13956 10.4509 9.5574 10.1445L8.96604 9.3381ZM7.54064 10.788C7.84173 10.8659 8.15809 10.8659 8.45919 10.788L8.20878 9.81986C8.07192 9.85526 7.9279 9.85526 7.79104 9.81986L7.54064 10.788ZM4.13127 14.4998H11.8687V13.4998H4.13127V14.4998ZM14.5 11.8688V7.68415H13.5V11.8688H14.5Z" fill="white"/>
</svg>
